<?xml version="1.0" standalone="no"?>
<!DOCTYPE svg PUBLIC "-//W3C//DTD SVG 1.1//EN"
  "http://www.w3.org/Graphics/SVG/1.1/DTD/svg11.dtd">
<svg xmlns="http://www.w3.org/2000/svg" version="1.1" class="railroad-diagram" width="433" height="72" viewBox="0 0 433 72">
<defs><style type="text/css"><![CDATA[ svg.railroad-diagram {
  background-color: rgba(255,255,255,0);
}
svg.railroad-diagram path {
  stroke-width: 3;
  stroke: rgb(36, 41, 46);
  fill: none;
}
svg.railroad-diagram text {
  font: bold 14px monospace;
  text-anchor: middle;
  cursor: pointer;
}
svg.railroad-diagram text.label {
  text-anchor: start;
}
svg.railroad-diagram text.comment {
  font: italic 12px monospace;
}
svg.railroad-diagram rect {
  stroke-width: 3;
  stroke: rgb(36, 41, 46);
  fill: hsl(120,100%,90%);
}
 ]]></style></defs>
<g transform="translate(.5 .5)">
<path d="M 20 31 v 20 m 10 -20 v 20 m -10 -10 h 20.5"></path>
<g>
<path d="M40 41h0"></path>
<path d="M392 41h0"></path>
<path d="M40 41h10"></path>
<g>
<path d="M50 41h0"></path>
<path d="M102 41h0"></path>
<rect x="50" y="30" width="52" height="22"></rect>
<text x="76" y="45">Name</text>
</g>
<path d="M102 41h10"></path>
<g>
<path d="M112 41h0"></path>
<path d="M392 41h0"></path>
<path d="M112 41a10 10 0 0 0 10 -10v0a10 10 0 0 1 10 -10"></path>
<g>
<path d="M132 21h240"></path>
</g>
<path d="M372 21a10 10 0 0 1 10 10v0a10 10 0 0 0 10 10"></path>
<path d="M112 41h20"></path>
<g>
<path d="M132 41h0"></path>
<path d="M372 41h0"></path>
<path d="M132 41h10"></path>
<g>
<path d="M142 41h0"></path>
<path d="M170 41h0"></path>
<rect x="142" y="30" width="28" height="22" rx="10" ry="10"></rect>
<text x="156" y="45">(</text>
</g>
<path d="M170 41h10"></path>
<path d="M180 41h10"></path>
<g>
<path d="M190 41h0"></path>
<path d="M314 41h0"></path>
<rect x="190" y="30" width="124" height="22"></rect>
<text x="252" y="45">ArgumentsList</text>
</g>
<path d="M314 41h10"></path>
<path d="M324 41h10"></path>
<g>
<path d="M334 41h0"></path>
<path d="M362 41h0"></path>
<rect x="334" y="30" width="28" height="22" rx="10" ry="10"></rect>
<text x="348" y="45">)</text>
</g>
<path d="M362 41h10"></path>
</g>
<path d="M372 41h20"></path>
</g>
</g>
<path d="M 392 41 h 20 m -10 -10 v 20 m 10 -20 v 20"></path>
</g>
</svg>
