<?xml version="1.0" standalone="no"?>
<!DOCTYPE svg PUBLIC "-//W3C//DTD SVG 1.1//EN"
  "http://www.w3.org/Graphics/SVG/1.1/DTD/svg11.dtd">
<svg xmlns="http://www.w3.org/2000/svg" version="1.1" class="railroad-diagram" width="641" height="72" viewBox="0 0 641 72">
<defs><style type="text/css"><![CDATA[ svg.railroad-diagram {
  background-color: rgba(255,255,255,0);
}
svg.railroad-diagram path {
  stroke-width: 3;
  stroke: rgb(36, 41, 46);
  fill: none;
}
svg.railroad-diagram text {
  font: bold 14px monospace;
  text-anchor: middle;
  cursor: pointer;
}
svg.railroad-diagram text.label {
  text-anchor: start;
}
svg.railroad-diagram text.comment {
  font: italic 12px monospace;
}
svg.railroad-diagram rect {
  stroke-width: 3;
  stroke: rgb(36, 41, 46);
  fill: hsl(120,100%,90%);
}
 ]]></style></defs>
<g transform="translate(.5 .5)">
<path d="M 20 31 v 20 m 10 -20 v 20 m -10 -10 h 20.5"></path>
<g>
<path d="M40 41h0"></path>
<path d="M600 41h0"></path>
<path d="M40 41h10"></path>
<g>
<path d="M50 41h0"></path>
<path d="M86 41h0"></path>
<rect x="50" y="30" width="36" height="22" rx="10" ry="10"></rect>
<text x="68" y="45">${</text>
</g>
<path d="M86 41h10"></path>
<path d="M96 41h10"></path>
<g>
<path d="M106 41h0"></path>
<path d="M166 41h0"></path>
<rect x="106" y="30" width="60" height="22"></rect>
<text x="136" y="45">Scope</text>
</g>
<path d="M166 41h10"></path>
<path d="M176 41h10"></path>
<g>
<path d="M186 41h0"></path>
<path d="M214 41h0"></path>
<rect x="186" y="30" width="28" height="22" rx="10" ry="10"></rect>
<text x="200" y="45">:</text>
</g>
<path d="M214 41h10"></path>
<path d="M224 41h10"></path>
<g>
<path d="M234 41h0"></path>
<path d="M286 41h0"></path>
<rect x="234" y="30" width="52" height="22"></rect>
<text x="260" y="45">Name</text>
</g>
<path d="M286 41h10"></path>
<g>
<path d="M296 41h0"></path>
<path d="M552 41h0"></path>
<path d="M296 41a10 10 0 0 0 10 -10v0a10 10 0 0 1 10 -10"></path>
<g>
<path d="M316 21h216"></path>
</g>
<path d="M532 21a10 10 0 0 1 10 10v0a10 10 0 0 0 10 10"></path>
<path d="M296 41h20"></path>
<g>
<path d="M316 41h0"></path>
<path d="M532 41h0"></path>
<path d="M316 41h10"></path>
<g>
<path d="M326 41h0"></path>
<path d="M354 41h0"></path>
<rect x="326" y="30" width="28" height="22" rx="10" ry="10"></rect>
<text x="340" y="45">|</text>
</g>
<path d="M354 41h10"></path>
<path d="M364 41h10"></path>
<g>
<path d="M374 41h0"></path>
<path d="M522 41h0"></path>
<rect x="374" y="30" width="148" height="22"></rect>
<text x="448" y="45">TransformersList</text>
</g>
<path d="M522 41h10"></path>
</g>
<path d="M532 41h20"></path>
</g>
<path d="M552 41h10"></path>
<g>
<path d="M562 41h0"></path>
<path d="M590 41h0"></path>
<rect x="562" y="30" width="28" height="22" rx="10" ry="10"></rect>
<text x="576" y="45">}</text>
</g>
<path d="M590 41h10"></path>
</g>
<path d="M 600 41 h 20 m -10 -10 v 20 m 10 -20 v 20"></path>
</g>
</svg>
